<?xml version="1.0" encoding="UTF-8" standalone="no"?>
<!DOCTYPE svg PUBLIC "-//W3C//DTD SVG 1.1//EN"
 "http://www.w3.org/Graphics/SVG/1.1/DTD/svg11.dtd">
<!-- Generated by graphviz version 2.43.0 (0)
 -->
<!-- Title: Sumador4Bits Pages: 1 -->
<svg width="1143pt" height="603pt"
 viewBox="0.00 0.00 1143.40 602.80" xmlns="http://www.w3.org/2000/svg" xmlns:xlink="http://www.w3.org/1999/xlink">
<g id="graph0" class="graph" transform="scale(1 1) rotate(0) translate(4 598.8)">
<title>Sumador4Bits</title>
<polygon fill="white" stroke="transparent" points="-4,4 -4,-598.8 1139.4,-598.8 1139.4,4 -4,4"/>
<text text-anchor="middle" x="567.7" y="-7.8" font-family="Times,serif" font-size="14.00">Sumador4Bits</text>
<!-- n13 -->
<g id="node1" class="node">
<title>n13</title>
<polygon fill="none" stroke="black" points="72.73,-552.84 72.73,-567.76 56.91,-578.3 34.54,-578.3 18.73,-567.76 18.73,-552.84 34.54,-542.3 56.91,-542.3 72.73,-552.84"/>
<text text-anchor="middle" x="45.73" y="-556.6" font-family="Times,serif" font-size="14.00">A</text>
</g>
<!-- c22 -->
<g id="node9" class="node">
<title>c22</title>
<polygon fill="none" stroke="black" points="148.45,-548.3 148.45,-594.3 253.45,-594.3 253.45,-548.3 148.45,-548.3"/>
<text text-anchor="middle" x="161.95" y="-579.1" font-family="Times,serif" font-size="14.00">A</text>
<polyline fill="none" stroke="black" points="148.45,-571.3 175.45,-571.3 "/>
<text text-anchor="middle" x="161.95" y="-556.1" font-family="Times,serif" font-size="14.00">B</text>
<polyline fill="none" stroke="black" points="175.45,-548.3 175.45,-594.3 "/>
<text text-anchor="middle" x="201.45" y="-575.1" font-family="Times,serif" font-size="14.00">$2</text>
<text text-anchor="middle" x="201.45" y="-560.1" font-family="Times,serif" font-size="14.00">$add</text>
<polyline fill="none" stroke="black" points="227.45,-548.3 227.45,-594.3 "/>
<text text-anchor="middle" x="240.45" y="-567.6" font-family="Times,serif" font-size="14.00">Y</text>
</g>
<!-- n13&#45;&gt;c22 -->
<g id="edge7" class="edge">
<title>n13:e&#45;&gt;c22:w</title>
<path fill="none" stroke="black" stroke-width="3" d="M73.73,-560.3C104.11,-560.3 111.4,-578.54 136.73,-582.53"/>
<polygon fill="black" stroke="black" stroke-width="3" points="136.72,-586.04 146.95,-583.3 137.24,-579.06 136.72,-586.04"/>
</g>
<!-- c37 -->
<g id="node29" class="node">
<title>c37</title>
<polygon fill="none" stroke="black" points="148.95,-428.3 148.95,-474.3 252.95,-474.3 252.95,-428.3 148.95,-428.3"/>
<text text-anchor="middle" x="162.45" y="-459.1" font-family="Times,serif" font-size="14.00">A</text>
<polyline fill="none" stroke="black" points="148.95,-451.3 175.95,-451.3 "/>
<text text-anchor="middle" x="162.45" y="-436.1" font-family="Times,serif" font-size="14.00">B</text>
<polyline fill="none" stroke="black" points="175.95,-428.3 175.95,-474.3 "/>
<text text-anchor="middle" x="201.45" y="-455.1" font-family="Times,serif" font-size="14.00">$4</text>
<text text-anchor="middle" x="201.45" y="-440.1" font-family="Times,serif" font-size="14.00">$sub</text>
<polyline fill="none" stroke="black" points="226.95,-428.3 226.95,-474.3 "/>
<text text-anchor="middle" x="239.95" y="-447.6" font-family="Times,serif" font-size="14.00">Y</text>
</g>
<!-- n13&#45;&gt;c37 -->
<g id="edge8" class="edge">
<title>n13:e&#45;&gt;c37:w</title>
<path fill="none" stroke="black" stroke-width="3" d="M73.73,-560.3C124.3,-560.3 97.95,-476.11 138.01,-464.6"/>
<polygon fill="black" stroke="black" stroke-width="3" points="138.49,-468.06 147.95,-463.3 137.59,-461.12 138.49,-468.06"/>
</g>
<!-- n14 -->
<g id="node2" class="node">
<title>n14</title>
<polygon fill="none" stroke="black" points="72.73,-453.84 72.73,-468.76 56.91,-479.3 34.54,-479.3 18.73,-468.76 18.73,-453.84 34.54,-443.3 56.91,-443.3 72.73,-453.84"/>
<text text-anchor="middle" x="45.73" y="-457.6" font-family="Times,serif" font-size="14.00">B</text>
</g>
<!-- n14&#45;&gt;c22 -->
<g id="edge9" class="edge">
<title>n14:e&#45;&gt;c22:w</title>
<path fill="none" stroke="black" stroke-width="3" d="M73.73,-461.3C124.38,-461.3 97.02,-546.36 137.01,-557.99"/>
<polygon fill="black" stroke="black" stroke-width="3" points="136.58,-561.46 146.95,-559.3 137.5,-554.52 136.58,-561.46"/>
</g>
<!-- n14&#45;&gt;c37 -->
<g id="edge10" class="edge">
<title>n14:e&#45;&gt;c37:w</title>
<path fill="none" stroke="black" stroke-width="3" d="M73.73,-461.3C104.51,-461.3 112.08,-443.7 137.97,-439.98"/>
<polygon fill="black" stroke="black" stroke-width="3" points="138.22,-443.47 147.95,-439.3 137.74,-436.49 138.22,-443.47"/>
</g>
<!-- n15 -->
<g id="node3" class="node">
<title>n15</title>
<polygon fill="none" stroke="black" points="234.08,-149.84 234.08,-164.76 214.68,-175.3 187.23,-175.3 167.83,-164.76 167.83,-149.84 187.23,-139.3 214.68,-139.3 234.08,-149.84"/>
<text text-anchor="middle" x="200.95" y="-153.6" font-family="Times,serif" font-size="14.00">CLK</text>
</g>
<!-- c26 -->
<g id="node12" class="node">
<title>c26</title>
<polygon fill="none" stroke="black" points="920.45,-277.3 920.45,-323.3 1039.45,-323.3 1039.45,-277.3 920.45,-277.3"/>
<text text-anchor="middle" x="943.95" y="-308.1" font-family="Times,serif" font-size="14.00">CLK</text>
<polyline fill="none" stroke="black" points="920.45,-300.3 967.45,-300.3 "/>
<text text-anchor="middle" x="943.95" y="-285.1" font-family="Times,serif" font-size="14.00">D</text>
<polyline fill="none" stroke="black" points="967.45,-277.3 967.45,-323.3 "/>
<text text-anchor="middle" x="989.45" y="-304.1" font-family="Times,serif" font-size="14.00">$17</text>
<text text-anchor="middle" x="989.45" y="-289.1" font-family="Times,serif" font-size="14.00">$dff</text>
<polyline fill="none" stroke="black" points="1011.45,-277.3 1011.45,-323.3 "/>
<text text-anchor="middle" x="1025.45" y="-296.6" font-family="Times,serif" font-size="14.00">Q</text>
</g>
<!-- n15&#45;&gt;c26 -->
<g id="edge11" class="edge">
<title>n15:e&#45;&gt;c26:w</title>
<path fill="none" stroke="black" d="M234.95,-157.3C269.67,-157.3 276.36,-170.79 310.45,-177.3 410.47,-196.38 436.13,-204.3 537.95,-204.3 537.95,-204.3 537.95,-204.3 681.45,-204.3 775.66,-204.3 806.94,-211.75 884.45,-265.3 902.72,-277.92 897.06,-302.7 910.65,-310.14"/>
<polygon fill="black" stroke="black" points="909.94,-313.57 920.45,-312.3 911.44,-306.73 909.94,-313.57"/>
</g>
<!-- c27 -->
<g id="node13" class="node">
<title>c27</title>
<polygon fill="none" stroke="black" points="323.95,-122.3 323.95,-168.3 442.95,-168.3 442.95,-122.3 323.95,-122.3"/>
<text text-anchor="middle" x="347.45" y="-153.1" font-family="Times,serif" font-size="14.00">CLK</text>
<polyline fill="none" stroke="black" points="323.95,-145.3 370.95,-145.3 "/>
<text text-anchor="middle" x="347.45" y="-130.1" font-family="Times,serif" font-size="14.00">D</text>
<polyline fill="none" stroke="black" points="370.95,-122.3 370.95,-168.3 "/>
<text text-anchor="middle" x="392.95" y="-149.1" font-family="Times,serif" font-size="14.00">$18</text>
<text text-anchor="middle" x="392.95" y="-134.1" font-family="Times,serif" font-size="14.00">$dff</text>
<polyline fill="none" stroke="black" points="414.95,-122.3 414.95,-168.3 "/>
<text text-anchor="middle" x="428.95" y="-141.6" font-family="Times,serif" font-size="14.00">Q</text>
</g>
<!-- n15&#45;&gt;c27 -->
<g id="edge12" class="edge">
<title>n15:e&#45;&gt;c27:w</title>
<path fill="none" stroke="black" d="M234.95,-157.3C270.2,-157.3 281.49,-157.3 312.24,-157.3"/>
<polygon fill="black" stroke="black" points="312.45,-160.8 322.45,-157.3 312.45,-153.8 312.45,-160.8"/>
</g>
<!-- n16 -->
<g id="node4" class="node">
<title>n16</title>
<polygon fill="none" stroke="black" points="715.8,-252.84 715.8,-267.76 695.1,-278.3 665.81,-278.3 645.1,-267.76 645.1,-252.84 665.81,-242.3 695.1,-242.3 715.8,-252.84"/>
<text text-anchor="middle" x="680.45" y="-256.6" font-family="Times,serif" font-size="14.00">ENB</text>
</g>
<!-- c34 -->
<g id="node25" class="node">
<title>c34</title>
<polygon fill="none" stroke="black" points="775.45,-274.8 775.45,-343.8 884.45,-343.8 884.45,-274.8 775.45,-274.8"/>
<text text-anchor="middle" x="788.95" y="-328.6" font-family="Times,serif" font-size="14.00">A</text>
<polyline fill="none" stroke="black" points="775.45,-320.8 802.45,-320.8 "/>
<text text-anchor="middle" x="788.95" y="-305.6" font-family="Times,serif" font-size="14.00">B</text>
<polyline fill="none" stroke="black" points="775.45,-297.8 802.45,-297.8 "/>
<text text-anchor="middle" x="788.95" y="-282.6" font-family="Times,serif" font-size="14.00">S</text>
<polyline fill="none" stroke="black" points="802.45,-274.8 802.45,-343.8 "/>
<text text-anchor="middle" x="830.45" y="-313.1" font-family="Times,serif" font-size="14.00">$15</text>
<text text-anchor="middle" x="830.45" y="-298.1" font-family="Times,serif" font-size="14.00">$mux</text>
<polyline fill="none" stroke="black" points="858.45,-274.8 858.45,-343.8 "/>
<text text-anchor="middle" x="871.45" y="-305.6" font-family="Times,serif" font-size="14.00">Y</text>
</g>
<!-- n16&#45;&gt;c34 -->
<g id="edge13" class="edge">
<title>n16:e&#45;&gt;c34:w</title>
<path fill="none" stroke="black" d="M717.45,-260.3C741.95,-260.3 746.33,-279.85 765.49,-285.05"/>
<polygon fill="black" stroke="black" points="765.1,-288.52 775.45,-286.3 765.97,-281.58 765.1,-288.52"/>
</g>
<!-- c36 -->
<g id="node28" class="node">
<title>c36</title>
<polygon fill="none" stroke="black" points="775.45,-84.8 775.45,-153.8 884.45,-153.8 884.45,-84.8 775.45,-84.8"/>
<text text-anchor="middle" x="788.95" y="-138.6" font-family="Times,serif" font-size="14.00">A</text>
<polyline fill="none" stroke="black" points="775.45,-130.8 802.45,-130.8 "/>
<text text-anchor="middle" x="788.95" y="-115.6" font-family="Times,serif" font-size="14.00">B</text>
<polyline fill="none" stroke="black" points="775.45,-107.8 802.45,-107.8 "/>
<text text-anchor="middle" x="788.95" y="-92.6" font-family="Times,serif" font-size="14.00">S</text>
<polyline fill="none" stroke="black" points="802.45,-84.8 802.45,-153.8 "/>
<text text-anchor="middle" x="830.45" y="-123.1" font-family="Times,serif" font-size="14.00">$8</text>
<text text-anchor="middle" x="830.45" y="-108.1" font-family="Times,serif" font-size="14.00">$mux</text>
<polyline fill="none" stroke="black" points="858.45,-84.8 858.45,-153.8 "/>
<text text-anchor="middle" x="871.45" y="-115.6" font-family="Times,serif" font-size="14.00">Y</text>
</g>
<!-- n16&#45;&gt;c36 -->
<g id="edge14" class="edge">
<title>n16:e&#45;&gt;c36:w</title>
<path fill="none" stroke="black" d="M717.45,-260.3C790.99,-260.3 707.16,-111.92 765.33,-97.43"/>
<polygon fill="black" stroke="black" points="765.91,-100.89 775.45,-96.3 765.13,-93.94 765.91,-100.89"/>
</g>
<!-- n17 -->
<g id="node5" class="node">
<title>n17</title>
<polygon fill="none" stroke="black" points="91.68,-318.84 91.68,-333.76 64.76,-344.3 26.69,-344.3 -0.23,-333.76 -0.23,-318.84 26.69,-308.3 64.76,-308.3 91.68,-318.84"/>
<text text-anchor="middle" x="45.73" y="-322.6" font-family="Times,serif" font-size="14.00">MODO</text>
</g>
<!-- c30 -->
<g id="node19" class="node">
<title>c30</title>
<polygon fill="none" stroke="black" points="127.45,-194.3 127.45,-240.3 274.45,-240.3 274.45,-194.3 127.45,-194.3"/>
<text text-anchor="middle" x="140.95" y="-225.1" font-family="Times,serif" font-size="14.00">A</text>
<polyline fill="none" stroke="black" points="127.45,-217.3 154.45,-217.3 "/>
<text text-anchor="middle" x="140.95" y="-202.1" font-family="Times,serif" font-size="14.00">B</text>
<polyline fill="none" stroke="black" points="154.45,-194.3 154.45,-240.3 "/>
<text text-anchor="middle" x="201.45" y="-221.1" font-family="Times,serif" font-size="14.00">$11_CMP0</text>
<text text-anchor="middle" x="201.45" y="-206.1" font-family="Times,serif" font-size="14.00">$eq</text>
<polyline fill="none" stroke="black" points="248.45,-194.3 248.45,-240.3 "/>
<text text-anchor="middle" x="261.45" y="-213.6" font-family="Times,serif" font-size="14.00">Y</text>
</g>
<!-- n17&#45;&gt;c30 -->
<g id="edge15" class="edge">
<title>n17:e&#45;&gt;c30:w</title>
<path fill="none" stroke="black" stroke-width="3" d="M91.45,-326.3C133.31,-326.3 90.7,-245.95 117.38,-231.51"/>
<polygon fill="black" stroke="black" stroke-width="3" points="118.44,-234.86 127.45,-229.3 116.94,-228.02 118.44,-234.86"/>
</g>
<!-- c31 -->
<g id="node21" class="node">
<title>c31</title>
<polygon fill="none" stroke="black" points="127.45,-363.3 127.45,-409.3 274.45,-409.3 274.45,-363.3 127.45,-363.3"/>
<text text-anchor="middle" x="140.95" y="-394.1" font-family="Times,serif" font-size="14.00">A</text>
<polyline fill="none" stroke="black" points="127.45,-386.3 154.45,-386.3 "/>
<text text-anchor="middle" x="140.95" y="-371.1" font-family="Times,serif" font-size="14.00">B</text>
<polyline fill="none" stroke="black" points="154.45,-363.3 154.45,-409.3 "/>
<text text-anchor="middle" x="201.45" y="-390.1" font-family="Times,serif" font-size="14.00">$12_CMP0</text>
<text text-anchor="middle" x="201.45" y="-375.1" font-family="Times,serif" font-size="14.00">$eq</text>
<polyline fill="none" stroke="black" points="248.45,-363.3 248.45,-409.3 "/>
<text text-anchor="middle" x="261.45" y="-382.6" font-family="Times,serif" font-size="14.00">Y</text>
</g>
<!-- n17&#45;&gt;c31 -->
<g id="edge16" class="edge">
<title>n17:e&#45;&gt;c31:w</title>
<path fill="none" stroke="black" stroke-width="3" d="M91.45,-326.3C123.04,-326.3 99.03,-382.41 117.59,-395.57"/>
<polygon fill="black" stroke="black" stroke-width="3" points="116.88,-399 127.45,-398.3 118.75,-392.26 116.88,-399"/>
</g>
<!-- c32 -->
<g id="node23" class="node">
<title>c32</title>
<polygon fill="none" stroke="black" points="127.45,-298.3 127.45,-344.3 274.45,-344.3 274.45,-298.3 127.45,-298.3"/>
<text text-anchor="middle" x="140.95" y="-329.1" font-family="Times,serif" font-size="14.00">A</text>
<polyline fill="none" stroke="black" points="127.45,-321.3 154.45,-321.3 "/>
<text text-anchor="middle" x="140.95" y="-306.1" font-family="Times,serif" font-size="14.00">B</text>
<polyline fill="none" stroke="black" points="154.45,-298.3 154.45,-344.3 "/>
<text text-anchor="middle" x="201.45" y="-325.1" font-family="Times,serif" font-size="14.00">$13_CMP0</text>
<text text-anchor="middle" x="201.45" y="-310.1" font-family="Times,serif" font-size="14.00">$eq</text>
<polyline fill="none" stroke="black" points="248.45,-298.3 248.45,-344.3 "/>
<text text-anchor="middle" x="261.45" y="-317.6" font-family="Times,serif" font-size="14.00">Y</text>
</g>
<!-- n17&#45;&gt;c32 -->
<g id="edge17" class="edge">
<title>n17:e&#45;&gt;c32:w</title>
<path fill="none" stroke="black" stroke-width="3" d="M91.45,-326.3C103.68,-326.3 108.65,-330.24 117.24,-332.21"/>
<polygon fill="black" stroke="black" stroke-width="3" points="117.14,-335.71 127.45,-333.3 117.88,-328.75 117.14,-335.71"/>
</g>
<!-- c33 -->
<g id="node24" class="node">
<title>c33</title>
<polygon fill="none" stroke="black" points="310.45,-254.3 310.45,-292.3 456.45,-292.3 456.45,-254.3 310.45,-254.3"/>
<text text-anchor="middle" x="323.45" y="-269.6" font-family="Times,serif" font-size="14.00">A</text>
<polyline fill="none" stroke="black" points="336.45,-254.3 336.45,-292.3 "/>
<text text-anchor="middle" x="383.45" y="-277.1" font-family="Times,serif" font-size="14.00">$14_CMP0</text>
<text text-anchor="middle" x="383.45" y="-262.1" font-family="Times,serif" font-size="14.00">$logic_not</text>
<polyline fill="none" stroke="black" points="430.45,-254.3 430.45,-292.3 "/>
<text text-anchor="middle" x="443.45" y="-269.6" font-family="Times,serif" font-size="14.00">Y</text>
</g>
<!-- n17&#45;&gt;c33 -->
<g id="edge18" class="edge">
<title>n17:e&#45;&gt;c33:w</title>
<path fill="none" stroke="black" stroke-width="3" d="M91.45,-326.3C114.72,-326.3 106.48,-298.36 127.45,-288.3 197.88,-254.53 226.37,-271.66 300.22,-273.19"/>
<polygon fill="black" stroke="black" stroke-width="3" points="300.42,-276.7 310.45,-273.3 300.49,-269.7 300.42,-276.7"/>
</g>
<!-- n18 -->
<g id="node6" class="node">
<title>n18</title>
<polygon fill="none" stroke="black" points="1129.45,-344.84 1129.45,-359.76 1113.64,-370.3 1091.27,-370.3 1075.45,-359.76 1075.45,-344.84 1091.27,-334.3 1113.64,-334.3 1129.45,-344.84"/>
<text text-anchor="middle" x="1102.45" y="-348.6" font-family="Times,serif" font-size="14.00">Q</text>
</g>
<!-- x1 -->
<g id="node16" class="node">
<title>x1</title>
<path fill="none" stroke="black" d="M504.45,-404.3C504.45,-404.3 573.45,-404.3 573.45,-404.3 579.45,-404.3 585.45,-410.3 585.45,-416.3 585.45,-416.3 585.45,-484.3 585.45,-484.3 585.45,-490.3 579.45,-496.3 573.45,-496.3 573.45,-496.3 504.45,-496.3 504.45,-496.3 498.45,-496.3 492.45,-490.3 492.45,-484.3 492.45,-484.3 492.45,-416.3 492.45,-416.3 492.45,-410.3 498.45,-404.3 504.45,-404.3"/>
<text text-anchor="middle" x="538.95" y="-481.1" font-family="Times,serif" font-size="14.00">3:0 &#45; 15:12</text>
<polyline fill="none" stroke="black" points="492.45,-473.3 585.45,-473.3 "/>
<text text-anchor="middle" x="538.95" y="-458.1" font-family="Times,serif" font-size="14.00">3:0 &#45; 11:8</text>
<polyline fill="none" stroke="black" points="492.45,-450.3 585.45,-450.3 "/>
<text text-anchor="middle" x="538.95" y="-435.1" font-family="Times,serif" font-size="14.00">3:0 &#45; 7:4</text>
<polyline fill="none" stroke="black" points="492.45,-427.3 585.45,-427.3 "/>
<text text-anchor="middle" x="538.95" y="-412.1" font-family="Times,serif" font-size="14.00">0 &#45;&gt; 3:0</text>
</g>
<!-- n18&#45;&gt;x1 -->
<g id="edge21" class="edge">
<title>n18:e&#45;&gt;x1:w</title>
<path fill="none" stroke="black" stroke-width="3" d="M1130.45,-352.3C1138.47,-352.3 1134.51,-364.08 1129.45,-370.3 1103.33,-402.42 1079.65,-384.41 1039.45,-394.3 838.59,-443.74 791.04,-473.88 585.45,-496.8 544.15,-501.4 522.58,-524.88 491.95,-496.8 491.48,-496.37 491.03,-495.86 490.61,-495.31"/>
<polygon fill="black" stroke="black" stroke-width="3" points="494.11,-495.41 490.95,-485.3 487.12,-495.18 494.11,-495.41"/>
</g>
<!-- n18&#45;&gt;c34 -->
<g id="edge20" class="edge">
<title>n18:e&#45;&gt;c34:w</title>
<path fill="none" stroke="black" stroke-width="3" d="M1130.45,-352.3C1138.47,-352.3 1135.27,-364.79 1129.45,-370.3 1112.02,-386.79 1099.43,-371.34 1075.45,-370.3 941.52,-364.52 869.59,-439.24 774.95,-344.3 774.48,-343.83 774.03,-343.28 773.61,-342.7"/>
<polygon fill="black" stroke="black" stroke-width="3" points="777.12,-342.41 773.95,-332.3 770.12,-342.18 777.12,-342.41"/>
</g>
<!-- n19 -->
<g id="node7" class="node">
<title>n19</title>
<polygon fill="none" stroke="black" points="230.96,-503.84 230.96,-518.76 213.38,-529.3 188.53,-529.3 170.95,-518.76 170.95,-503.84 188.53,-493.3 213.38,-493.3 230.96,-503.84"/>
<text text-anchor="middle" x="200.95" y="-507.6" font-family="Times,serif" font-size="14.00">RCI</text>
</g>
<!-- c23 -->
<g id="node10" class="node">
<title>c23</title>
<polygon fill="none" stroke="black" points="330.95,-500.3 330.95,-546.3 435.95,-546.3 435.95,-500.3 330.95,-500.3"/>
<text text-anchor="middle" x="344.45" y="-531.1" font-family="Times,serif" font-size="14.00">A</text>
<polyline fill="none" stroke="black" points="330.95,-523.3 357.95,-523.3 "/>
<text text-anchor="middle" x="344.45" y="-508.1" font-family="Times,serif" font-size="14.00">B</text>
<polyline fill="none" stroke="black" points="357.95,-500.3 357.95,-546.3 "/>
<text text-anchor="middle" x="383.95" y="-527.1" font-family="Times,serif" font-size="14.00">$3</text>
<text text-anchor="middle" x="383.95" y="-512.1" font-family="Times,serif" font-size="14.00">$add</text>
<polyline fill="none" stroke="black" points="409.95,-500.3 409.95,-546.3 "/>
<text text-anchor="middle" x="422.95" y="-519.6" font-family="Times,serif" font-size="14.00">Y</text>
</g>
<!-- n19&#45;&gt;c23 -->
<g id="edge22" class="edge">
<title>n19:e&#45;&gt;c23:w</title>
<path fill="none" stroke="black" d="M231.95,-511.3C271.73,-511.3 284.12,-511.3 319.41,-511.3"/>
<polygon fill="black" stroke="black" points="319.45,-514.8 329.45,-511.3 319.45,-507.8 319.45,-514.8"/>
</g>
<!-- c24 -->
<g id="node11" class="node">
<title>c24</title>
<polygon fill="none" stroke="black" points="330.95,-416.3 330.95,-462.3 435.95,-462.3 435.95,-416.3 330.95,-416.3"/>
<text text-anchor="middle" x="344.45" y="-447.1" font-family="Times,serif" font-size="14.00">A</text>
<polyline fill="none" stroke="black" points="330.95,-439.3 357.95,-439.3 "/>
<text text-anchor="middle" x="344.45" y="-424.1" font-family="Times,serif" font-size="14.00">B</text>
<polyline fill="none" stroke="black" points="357.95,-416.3 357.95,-462.3 "/>
<text text-anchor="middle" x="383.95" y="-443.1" font-family="Times,serif" font-size="14.00">$5</text>
<text text-anchor="middle" x="383.95" y="-428.1" font-family="Times,serif" font-size="14.00">$add</text>
<polyline fill="none" stroke="black" points="409.95,-416.3 409.95,-462.3 "/>
<text text-anchor="middle" x="422.95" y="-435.6" font-family="Times,serif" font-size="14.00">Y</text>
</g>
<!-- n19&#45;&gt;c24 -->
<g id="edge23" class="edge">
<title>n19:e&#45;&gt;c24:w</title>
<path fill="none" stroke="black" d="M231.95,-511.3C254.33,-511.3 257.12,-498.45 274.45,-484.3 298.74,-464.47 295.47,-434.75 319.33,-428.48"/>
<polygon fill="black" stroke="black" points="319.93,-431.94 329.45,-427.3 319.11,-424.99 319.93,-431.94"/>
</g>
<!-- n20 -->
<g id="node8" class="node">
<title>n20</title>
<polygon fill="none" stroke="black" points="573.4,-150.84 573.4,-165.76 553.22,-176.3 524.69,-176.3 504.51,-165.76 504.51,-150.84 524.69,-140.3 553.22,-140.3 573.4,-150.84"/>
<text text-anchor="middle" x="538.95" y="-154.6" font-family="Times,serif" font-size="14.00">RCO</text>
</g>
<!-- c35 -->
<g id="node27" class="node">
<title>c35</title>
<polygon fill="none" stroke="black" points="625.95,-64.8 625.95,-133.8 734.95,-133.8 734.95,-64.8 625.95,-64.8"/>
<text text-anchor="middle" x="639.45" y="-118.6" font-family="Times,serif" font-size="14.00">A</text>
<polyline fill="none" stroke="black" points="625.95,-110.8 652.95,-110.8 "/>
<text text-anchor="middle" x="639.45" y="-95.6" font-family="Times,serif" font-size="14.00">B</text>
<polyline fill="none" stroke="black" points="625.95,-87.8 652.95,-87.8 "/>
<text text-anchor="middle" x="639.45" y="-72.6" font-family="Times,serif" font-size="14.00">S</text>
<polyline fill="none" stroke="black" points="652.95,-64.8 652.95,-133.8 "/>
<text text-anchor="middle" x="680.95" y="-103.1" font-family="Times,serif" font-size="14.00">$6</text>
<text text-anchor="middle" x="680.95" y="-88.1" font-family="Times,serif" font-size="14.00">$mux</text>
<polyline fill="none" stroke="black" points="708.95,-64.8 708.95,-133.8 "/>
<text text-anchor="middle" x="721.95" y="-95.6" font-family="Times,serif" font-size="14.00">Y</text>
</g>
<!-- n20&#45;&gt;c35 -->
<g id="edge26" class="edge">
<title>n20:e&#45;&gt;c35:w</title>
<path fill="none" stroke="black" d="M574.95,-158.3C598.12,-158.3 598,-132.19 614.25,-124.44"/>
<polygon fill="black" stroke="black" points="615.39,-127.78 624.45,-122.3 613.95,-120.93 615.39,-127.78"/>
</g>
<!-- n20&#45;&gt;c36 -->
<g id="edge27" class="edge">
<title>n20:e&#45;&gt;c36:w</title>
<path fill="none" stroke="black" d="M574.95,-158.3C616.6,-158.3 715.88,-144.41 765.4,-142.51"/>
<polygon fill="black" stroke="black" points="765.53,-146.01 775.45,-142.3 765.38,-139.01 765.53,-146.01"/>
</g>
<!-- c22&#45;&gt;c23 -->
<g id="edge28" class="edge">
<title>c22:e&#45;&gt;c23:w</title>
<path fill="none" stroke="black" stroke-width="3" d="M254.95,-571.3C287.99,-571.3 292.12,-542.24 319.28,-536.34"/>
<polygon fill="black" stroke="black" stroke-width="3" points="319.86,-539.8 329.45,-535.3 319.15,-532.83 319.86,-539.8"/>
</g>
<!-- c23&#45;&gt;x1 -->
<g id="edge29" class="edge">
<title>c23:e&#45;&gt;x1:w</title>
<path fill="none" stroke="black" stroke-width="3" d="M437.45,-523.3C470.11,-523.3 459.14,-474.49 482.6,-464.19"/>
<polygon fill="black" stroke="black" stroke-width="3" points="483.29,-467.62 492.45,-462.3 481.97,-460.75 483.29,-467.62"/>
</g>
<!-- c24&#45;&gt;x1 -->
<g id="edge30" class="edge">
<title>c24:e&#45;&gt;x1:w</title>
<path fill="none" stroke="black" stroke-width="3" d="M437.45,-439.3C458.08,-439.3 465.65,-438.59 482.2,-438.37"/>
<polygon fill="black" stroke="black" stroke-width="3" points="482.48,-441.86 492.45,-438.3 482.43,-434.86 482.48,-441.86"/>
</g>
<!-- c26&#45;&gt;n18 -->
<g id="edge19" class="edge">
<title>c26:e&#45;&gt;n18:w</title>
<path fill="none" stroke="black" stroke-width="3" d="M1039.45,-300.3C1063.39,-300.3 1052.28,-338.01 1065.82,-349.2"/>
<polygon fill="black" stroke="black" stroke-width="3" points="1064.86,-352.57 1075.45,-352.3 1067,-345.91 1064.86,-352.57"/>
</g>
<!-- c27&#45;&gt;n20 -->
<g id="edge25" class="edge">
<title>c27:e&#45;&gt;n20:w</title>
<path fill="none" stroke="black" d="M444.45,-145.3C467.34,-145.3 474.43,-154.9 492.87,-157.6"/>
<polygon fill="black" stroke="black" points="492.74,-161.1 502.95,-158.3 493.22,-154.12 492.74,-161.1"/>
</g>
<!-- v0 -->
<g id="node14" class="node">
<title>v0</title>
<ellipse fill="none" stroke="black" cx="538.95" cy="-364.3" rx="40.09" ry="18"/>
<text text-anchor="middle" x="538.95" y="-360.6" font-family="Times,serif" font-size="14.00">4&#39;xxxx</text>
</g>
<!-- c29 -->
<g id="node15" class="node">
<title>c29</title>
<polygon fill="none" stroke="black" points="621.45,-301.8 621.45,-370.8 739.45,-370.8 739.45,-301.8 621.45,-301.8"/>
<text text-anchor="middle" x="634.95" y="-355.6" font-family="Times,serif" font-size="14.00">A</text>
<polyline fill="none" stroke="black" points="621.45,-347.8 648.45,-347.8 "/>
<text text-anchor="middle" x="634.95" y="-332.6" font-family="Times,serif" font-size="14.00">B</text>
<polyline fill="none" stroke="black" points="621.45,-324.8 648.45,-324.8 "/>
<text text-anchor="middle" x="634.95" y="-309.6" font-family="Times,serif" font-size="14.00">S</text>
<polyline fill="none" stroke="black" points="648.45,-301.8 648.45,-370.8 "/>
<text text-anchor="middle" x="680.95" y="-340.1" font-family="Times,serif" font-size="14.00">$10</text>
<text text-anchor="middle" x="680.95" y="-325.1" font-family="Times,serif" font-size="14.00">$pmux</text>
<polyline fill="none" stroke="black" points="713.45,-301.8 713.45,-370.8 "/>
<text text-anchor="middle" x="726.45" y="-332.6" font-family="Times,serif" font-size="14.00">Y</text>
</g>
<!-- v0&#45;&gt;c29 -->
<g id="edge37" class="edge">
<title>v0:e&#45;&gt;c29:w</title>
<path fill="none" stroke="black" stroke-width="3" d="M580.95,-364.3C595.12,-364.3 600.8,-361.25 611.26,-359.91"/>
<polygon fill="black" stroke="black" stroke-width="3" points="611.68,-363.39 621.45,-359.3 611.26,-356.41 611.68,-363.39"/>
</g>
<!-- c29&#45;&gt;c34 -->
<g id="edge31" class="edge">
<title>c29:e&#45;&gt;c34:w</title>
<path fill="none" stroke="black" stroke-width="3" d="M739.45,-336.3C755.39,-336.3 756.09,-319.15 765.83,-312.19"/>
<polygon fill="black" stroke="black" stroke-width="3" points="766.88,-315.53 775.45,-309.3 764.87,-308.82 766.88,-315.53"/>
</g>
<!-- x1&#45;&gt;c29 -->
<g id="edge1" class="edge">
<title>x1:e&#45;&gt;c29:w</title>
<path fill="none" stroke="black" stroke-width="3" d="M597.35,-447.48C623.54,-431.71 583.26,-354.53 609.73,-339.02"/>
<polygon fill="none" stroke="black" stroke-width="3" points="597.13,-447.53 592.21,-452.81 585.45,-450.3 590.37,-445.02 597.13,-447.53"/>
<polygon fill="none" stroke="black" stroke-width="3" points="609.76,-339.01 614.71,-333.76 621.45,-336.3 616.51,-341.55 609.76,-339.01"/>
</g>
<!-- x2 -->
<g id="node17" class="node">
<title>x2</title>
<path fill="none" stroke="black" d="M513.45,-235.3C513.45,-235.3 564.45,-235.3 564.45,-235.3 570.45,-235.3 576.45,-241.3 576.45,-247.3 576.45,-247.3 576.45,-315.3 576.45,-315.3 576.45,-321.3 570.45,-327.3 564.45,-327.3 564.45,-327.3 513.45,-327.3 513.45,-327.3 507.45,-327.3 501.45,-321.3 501.45,-315.3 501.45,-315.3 501.45,-247.3 501.45,-247.3 501.45,-241.3 507.45,-235.3 513.45,-235.3"/>
<text text-anchor="middle" x="538.95" y="-312.1" font-family="Times,serif" font-size="14.00">0:0 &#45; 3:3</text>
<polyline fill="none" stroke="black" points="501.45,-304.3 576.45,-304.3 "/>
<text text-anchor="middle" x="538.95" y="-289.1" font-family="Times,serif" font-size="14.00">0:0 &#45; 2:2</text>
<polyline fill="none" stroke="black" points="501.45,-281.3 576.45,-281.3 "/>
<text text-anchor="middle" x="538.95" y="-266.1" font-family="Times,serif" font-size="14.00">0:0 &#45; 1:1</text>
<polyline fill="none" stroke="black" points="501.45,-258.3 576.45,-258.3 "/>
<text text-anchor="middle" x="538.95" y="-243.1" font-family="Times,serif" font-size="14.00">0:0 &#45; 0:0</text>
</g>
<!-- x2&#45;&gt;c29 -->
<g id="edge2" class="edge">
<title>x2:e&#45;&gt;c29:w</title>
<path fill="none" stroke="black" stroke-width="3" d="M589.53,-284.72C598.27,-290.85 601.08,-303.62 609.78,-309.8"/>
<polygon fill="none" stroke="black" stroke-width="3" points="589.46,-284.7 582.57,-286.84 577.95,-281.3 584.84,-279.17 589.46,-284.7"/>
<polygon fill="none" stroke="black" stroke-width="3" points="609.96,-309.86 616.85,-307.75 621.45,-313.3 614.56,-315.41 609.96,-309.86"/>
</g>
<!-- v3 -->
<g id="node18" class="node">
<title>v3</title>
<ellipse fill="none" stroke="black" cx="45.73" cy="-205.3" rx="30.59" ry="18"/>
<text text-anchor="middle" x="45.73" y="-201.6" font-family="Times,serif" font-size="14.00">2&#39;11</text>
</g>
<!-- v3&#45;&gt;c30 -->
<g id="edge38" class="edge">
<title>v3:e&#45;&gt;c30:w</title>
<path fill="none" stroke="black" stroke-width="3" d="M77.73,-205.3C96.03,-205.3 102.96,-205.3 117.36,-205.3"/>
<polygon fill="black" stroke="black" stroke-width="3" points="117.45,-208.8 127.45,-205.3 117.45,-201.8 117.45,-208.8"/>
</g>
<!-- n7 -->
<g id="node30" class="node">
<title>n7</title>
<ellipse fill="black" stroke="black" cx="383.45" cy="-234.3" rx="1.8" ry="1.8"/>
</g>
<!-- c30&#45;&gt;n7 -->
<g id="edge32" class="edge">
<title>c30:e&#45;&gt;n7:w</title>
<path fill="none" stroke="black" d="M274.45,-217.3C318.63,-217.3 330.97,-231.87 370.41,-234.03"/>
<polygon fill="black" stroke="black" points="370.36,-237.53 380.45,-234.3 370.55,-230.53 370.36,-237.53"/>
</g>
<!-- v4 -->
<g id="node20" class="node">
<title>v4</title>
<ellipse fill="none" stroke="black" cx="45.73" cy="-380.3" rx="30.59" ry="18"/>
<text text-anchor="middle" x="45.73" y="-376.6" font-family="Times,serif" font-size="14.00">2&#39;10</text>
</g>
<!-- v4&#45;&gt;c31 -->
<g id="edge39" class="edge">
<title>v4:e&#45;&gt;c31:w</title>
<path fill="none" stroke="black" stroke-width="3" d="M77.73,-380.3C96.16,-380.3 102.9,-376.18 117.31,-374.77"/>
<polygon fill="black" stroke="black" stroke-width="3" points="117.63,-378.26 127.45,-374.3 117.3,-371.27 117.63,-378.26"/>
</g>
<!-- c31&#45;&gt;x2 -->
<g id="edge35" class="edge">
<title>c31:e&#45;&gt;x2:w</title>
<path fill="none" stroke="black" d="M274.45,-386.3C359.77,-386.3 386.87,-374.65 456.45,-325.3 478.95,-309.35 471.25,-278.44 490.09,-270.96"/>
<polygon fill="black" stroke="black" points="490.67,-274.41 499.95,-269.3 489.51,-267.51 490.67,-274.41"/>
</g>
<!-- v5 -->
<g id="node22" class="node">
<title>v5</title>
<ellipse fill="none" stroke="black" cx="45.73" cy="-272.3" rx="30.59" ry="18"/>
<text text-anchor="middle" x="45.73" y="-268.6" font-family="Times,serif" font-size="14.00">2&#39;01</text>
</g>
<!-- v5&#45;&gt;c32 -->
<g id="edge40" class="edge">
<title>v5:e&#45;&gt;c32:w</title>
<path fill="none" stroke="black" stroke-width="3" d="M77.73,-272.3C101.4,-272.3 100.77,-299.63 117.6,-307.31"/>
<polygon fill="black" stroke="black" stroke-width="3" points="116.96,-310.75 127.45,-309.3 118.34,-303.89 116.96,-310.75"/>
</g>
<!-- c32&#45;&gt;x2 -->
<g id="edge36" class="edge">
<title>c32:e&#45;&gt;x2:w</title>
<path fill="none" stroke="black" d="M274.45,-321.3C355.83,-321.3 375.94,-313.11 456.45,-301.3 472.1,-299 478.01,-295.22 489.96,-293.83"/>
<polygon fill="black" stroke="black" points="490.15,-297.33 499.95,-293.3 489.78,-290.34 490.15,-297.33"/>
</g>
<!-- c33&#45;&gt;x2 -->
<g id="edge4" class="edge">
<title>c33:e&#45;&gt;x2:w</title>
<path fill="none" stroke="black" d="M456.45,-273.3C479.6,-273.3 475.16,-304.48 490.11,-313.74"/>
<polygon fill="black" stroke="black" points="489.39,-317.17 499.95,-316.3 491.16,-310.39 489.39,-317.17"/>
</g>
<!-- c34&#45;&gt;c26 -->
<g id="edge3" class="edge">
<title>c34:e&#45;&gt;c26:w</title>
<path fill="none" stroke="black" stroke-width="3" d="M884.45,-309.3C898.93,-309.3 901.45,-296.48 910.7,-290.87"/>
<polygon fill="black" stroke="black" stroke-width="3" points="911.68,-294.24 920.45,-288.3 909.89,-287.47 911.68,-294.24"/>
</g>
<!-- v6 -->
<g id="node26" class="node">
<title>v6</title>
<ellipse fill="none" stroke="black" cx="538.95" cy="-104.3" rx="27" ry="18"/>
<text text-anchor="middle" x="538.95" y="-100.6" font-family="Times,serif" font-size="14.00">1&#39;0</text>
</g>
<!-- v6&#45;&gt;c35 -->
<g id="edge41" class="edge">
<title>v6:e&#45;&gt;c35:w</title>
<path fill="none" stroke="black" d="M566.95,-104.3C588.8,-104.3 596.53,-100.67 614.19,-99.6"/>
<polygon fill="black" stroke="black" points="614.56,-103.09 624.45,-99.3 614.36,-96.09 614.56,-103.09"/>
</g>
<!-- c35&#45;&gt;c36 -->
<g id="edge5" class="edge">
<title>c35:e&#45;&gt;c36:w</title>
<path fill="none" stroke="black" d="M736.45,-99.3C751.98,-99.3 755.16,-112 765.66,-117.16"/>
<polygon fill="black" stroke="black" points="764.94,-120.58 775.45,-119.3 766.43,-113.74 764.94,-120.58"/>
</g>
<!-- c36&#45;&gt;c27 -->
<g id="edge24" class="edge">
<title>c36:e&#45;&gt;c27:w</title>
<path fill="none" stroke="black" d="M885.95,-119.3C907.74,-119.3 881.84,-228.82 775.45,-154.3 737.11,-127.44 777.8,-82.16 739.45,-55.3 649.53,7.68 600.24,-37.42 492.45,-58.3 413.68,-73.56 371.95,-57.88 323.45,-121.8 323.16,-122.18 322.87,-122.6 322.59,-123.03"/>
<polygon fill="black" stroke="black" points="319.09,-123.25 322.45,-133.3 326.09,-123.35 319.09,-123.25"/>
</g>
<!-- c37&#45;&gt;c24 -->
<g id="edge6" class="edge">
<title>c37:e&#45;&gt;c24:w</title>
<path fill="none" stroke="black" stroke-width="3" d="M253.95,-451.3C283.84,-451.3 293.76,-451.3 319.28,-451.3"/>
<polygon fill="black" stroke="black" stroke-width="3" points="319.45,-454.8 329.45,-451.3 319.45,-447.8 319.45,-454.8"/>
</g>
<!-- n7&#45;&gt;x2 -->
<g id="edge34" class="edge">
<title>n7:e&#45;&gt;x2:w</title>
<path fill="none" stroke="black" d="M386.45,-234.3C433.61,-234.3 447.34,-244.67 489.8,-246.13"/>
<polygon fill="black" stroke="black" points="489.9,-249.63 499.95,-246.3 490.01,-242.63 489.9,-249.63"/>
</g>
<!-- n7&#45;&gt;c35 -->
<g id="edge33" class="edge">
<title>n7:e&#45;&gt;c35:w</title>
<path fill="none" stroke="black" d="M386.45,-234.3C426.57,-234.3 433.26,-210.03 456.45,-177.3 483.76,-138.76 453.91,-104.61 492.45,-77.3 537.43,-45.44 562.62,-72.56 614.15,-75.96"/>
<polygon fill="black" stroke="black" points="614.34,-79.47 624.45,-76.3 614.57,-72.47 614.34,-79.47"/>
</g>
</g>
</svg>
